<?xml version="1.0" encoding="UTF-8" standalone="no"?>
<!-- Uploaded to: SVG Repo, www.svgrepo.com, Transformed by: SVG Repo Mixer Tools -->

<svg
   fill="#ffffff"
   width="204px"
   height="204px"
   viewBox="-3.2 -3.2 38.40 38.40"
   stroke="#ffffff"
   stroke-width="0.00032"
   transform="matrix(1, 0, 0, 1, 0, 0)rotate(0)"
   version="1.1"
   id="svg12"
   sodipodi:docname="armchair.svg"
   inkscape:version="1.2.1 (9c6d41e410, 2022-07-14)"
   xmlns:inkscape="http://www.inkscape.org/namespaces/inkscape"
   xmlns:sodipodi="http://sodipodi.sourceforge.net/DTD/sodipodi-0.dtd"
   xmlns="http://www.w3.org/2000/svg"
   xmlns:svg="http://www.w3.org/2000/svg">
  <defs
     id="defs16" />
  <sodipodi:namedview
     id="namedview14"
     pagecolor="#505050"
     bordercolor="#ffffff"
     borderopacity="1"
     inkscape:showpageshadow="0"
     inkscape:pageopacity="0"
     inkscape:pagecheckerboard="1"
     inkscape:deskcolor="#505050"
     showgrid="false"
     inkscape:zoom="4.2990196"
     inkscape:cx="102.23261"
     inkscape:cy="102.11631"
     inkscape:window-width="1920"
     inkscape:window-height="1057"
     inkscape:window-x="-8"
     inkscape:window-y="-8"
     inkscape:window-maximized="1"
     inkscape:current-layer="svg12" />
  <g
     id="SVGRepo_tracerCarrier"
     stroke-linecap="round"
     stroke-linejoin="round" />
  <g
     id="SVGRepo_iconCarrier">
    <title
       id="title6" />
    <g
       data-name="Layer 2"
       id="Layer_2">
      <path
         d="M18,25a1,1,0,0,0,1-1V21h3.66A3.35,3.35,0,0,0,26,17.66V14a1,1,0,0,0,0-2H24a1,1,0,0,0,0,2v3.66a1.32,1.32,0,0,1-1,1.27V17.59a2.61,2.61,0,0,0-1-2v-11A3.57,3.57,0,0,0,18.44,1H13.56A3.57,3.57,0,0,0,10,4.56v11a2.61,2.61,0,0,0-1,2v1.34a1.32,1.32,0,0,1-1-1.27V14a1,1,0,0,0,0-2H6a1,1,0,0,0,0,2v3.66A3.35,3.35,0,0,0,9.34,21H13v3a1,1,0,0,0,1,1h1v2H13.28A2.28,2.28,0,0,0,11,29.28V30a1,1,0,0,0,2,0v-.72a.29.29,0,0,1,.28-.28H15v1a1,1,0,0,0,2,0V29h1.72a.29.29,0,0,1,.28.28V30a1,1,0,0,0,2,0v-.72A2.28,2.28,0,0,0,18.72,27H17V25ZM12,7h8v8H12Zm1.56-4h4.88A1.56,1.56,0,0,1,20,4.56V5H12V4.56A1.56,1.56,0,0,1,13.56,3ZM11,17.59a.6.6,0,0,1,.59-.59h8.82a.6.6,0,0,1,.59.59V19H11ZM17,21v2H15V21Z"
         id="path8" />
    </g>
  </g>
</svg>
