<?xml version="1.0" encoding="UTF-8" standalone="no"?>
<!-- Uploaded to: SVG Repo, www.svgrepo.com, Transformed by: SVG Repo Mixer Tools -->

<svg
   fill="#ffffff"
   height="800px"
   width="800px"
   version="1.1"
   id="Capa_1"
   viewBox="-6 -6 72.00 72.00"
   xml:space="preserve"
   stroke="#ffffff"
   sodipodi:docname="cooler.svg"
   inkscape:version="1.2.1 (9c6d41e410, 2022-07-14)"
   xmlns:inkscape="http://www.inkscape.org/namespaces/inkscape"
   xmlns:sodipodi="http://sodipodi.sourceforge.net/DTD/sodipodi-0.dtd"
   xmlns="http://www.w3.org/2000/svg"
   xmlns:svg="http://www.w3.org/2000/svg"><defs
   id="defs42" /><sodipodi:namedview
   id="namedview40"
   pagecolor="#505050"
   bordercolor="#ffffff"
   borderopacity="1"
   inkscape:showpageshadow="0"
   inkscape:pageopacity="0"
   inkscape:pagecheckerboard="1"
   inkscape:deskcolor="#505050"
   showgrid="false"
   inkscape:zoom="1.09625"
   inkscape:cx="400"
   inkscape:cy="400.4561"
   inkscape:window-width="1920"
   inkscape:window-height="1057"
   inkscape:window-x="-8"
   inkscape:window-y="-8"
   inkscape:window-maximized="1"
   inkscape:current-layer="Capa_1" />



<g
   id="SVGRepo_tracerCarrier"
   stroke-linecap="round"
   stroke-linejoin="round" />

<g
   id="SVGRepo_iconCarrier"> <g
   id="g36"> <path
   d="M28.224,23.234c0.018-0.005,0.037-0.007,0.055-0.011c0.201-0.051,0.405-0.093,0.612-0.126 c0.03-0.005,0.06-0.009,0.09-0.014c0.211-0.031,0.424-0.052,0.641-0.064c0.026-0.001,0.052-0.003,0.079-0.004 C29.801,23.011,29.899,23,30,23c0.119,0,0.235,0.012,0.353,0.018c0.026,0.001,0.051,0.002,0.077,0.004 c0.219,0.013,0.435,0.037,0.648,0.07c0.015,0.002,0.03,0.002,0.045,0.005c1.145-6.059-1.284-11.573-7.581-17.246 c-0.16,0.043-0.318,0.09-0.477,0.136c-0.214,0.062-0.429,0.123-0.641,0.191c-0.229,0.073-0.455,0.152-0.681,0.231 c-0.176,0.062-0.351,0.124-0.525,0.189c-0.245,0.092-0.487,0.188-0.728,0.288c-0.146,0.06-0.29,0.122-0.435,0.185 c-0.26,0.113-0.519,0.229-0.775,0.351c-0.107,0.051-0.213,0.105-0.319,0.157c-0.287,0.142-0.573,0.285-0.853,0.438 c-0.025,0.013-0.049,0.028-0.074,0.042c-1.376,0.754-2.674,1.632-3.878,2.622c-0.023,0.019-0.046,0.037-0.069,0.056 c-0.112,0.093-0.22,0.192-0.331,0.286c0.075,0.017,0.15,0.034,0.228,0.052C18.075,12.009,25.566,13.723,28.224,23.234z"
   id="path6" /> <path
   d="M15.88,24.189c2.672,0,5.385,0.768,8.078,2.283c0.025-0.043,0.056-0.082,0.082-0.124c0.083-0.135,0.168-0.267,0.259-0.395 c0.052-0.073,0.106-0.144,0.16-0.214c0.088-0.114,0.178-0.225,0.272-0.333c0.062-0.071,0.125-0.141,0.19-0.209 c0.099-0.105,0.202-0.206,0.307-0.304c0.064-0.06,0.128-0.12,0.195-0.177c0.122-0.105,0.248-0.205,0.376-0.302 c0.038-0.028,0.072-0.061,0.11-0.089c-3.455-5.039-9.151-7.27-17.541-6.835c-0.107,0.185-0.217,0.368-0.32,0.556 c-0.018,0.034-0.037,0.068-0.055,0.102c-0.172,0.318-0.338,0.641-0.496,0.968c-0.03,0.061-0.058,0.123-0.087,0.184 c-0.147,0.309-0.29,0.621-0.424,0.937c-0.038,0.089-0.072,0.18-0.109,0.269c-0.122,0.296-0.243,0.593-0.353,0.895 c-0.077,0.21-0.145,0.423-0.216,0.635c-0.096,0.284-0.188,0.57-0.274,0.859c-0.095,0.322-0.188,0.645-0.271,0.97 c-0.03,0.119-0.055,0.24-0.083,0.36c-0.075,0.319-0.148,0.639-0.211,0.961c-0.025,0.126-0.045,0.254-0.068,0.38 c-0.057,0.317-0.109,0.635-0.154,0.954c-0.019,0.135-0.035,0.27-0.052,0.405c-0.038,0.311-0.071,0.624-0.098,0.937 c-0.006,0.07-0.011,0.14-0.016,0.21c0.067-0.043,0.136-0.086,0.206-0.13C7.67,26.448,11.27,24.189,15.88,24.189z"
   id="path8" /> <path
   d="M23.232,31.778c-0.009-0.035-0.013-0.07-0.022-0.105c-0.042-0.168-0.077-0.338-0.106-0.511 c-0.011-0.067-0.022-0.134-0.031-0.202c-0.023-0.167-0.04-0.336-0.051-0.506c-0.005-0.074-0.009-0.148-0.011-0.223 C23.009,30.154,23,30.078,23,30c0-0.094,0.01-0.186,0.014-0.279c0.003-0.067,0.006-0.134,0.01-0.202 c0.013-0.188,0.034-0.373,0.061-0.557c0.004-0.027,0.005-0.055,0.009-0.083c-6.07-1.14-11.6,1.32-17.245,7.577 c0.059,0.219,0.122,0.437,0.186,0.654c0.041,0.137,0.079,0.275,0.122,0.412c0.09,0.284,0.187,0.565,0.287,0.845 c0.041,0.117,0.083,0.233,0.126,0.349c0.11,0.294,0.225,0.585,0.345,0.874c0.037,0.09,0.076,0.18,0.115,0.27 c0.134,0.31,0.272,0.619,0.418,0.922c0.022,0.045,0.045,0.09,0.067,0.136c0.94,1.927,2.123,3.713,3.504,5.325 c0.017-0.073,0.034-0.148,0.051-0.225C12.007,41.927,13.721,34.436,23.232,31.778z"
   id="path10" /> <path
   d="M34.748,28.51c-0.056-0.179-0.107-0.359-0.184-0.532c-0.069-0.156-0.158-0.299-0.242-0.446 c-0.09-0.157-0.182-0.314-0.287-0.459c-0.084-0.115-0.178-0.221-0.271-0.328c-0.111-0.128-0.221-0.257-0.344-0.372 c-0.104-0.098-0.218-0.183-0.33-0.272c-0.136-0.108-0.27-0.217-0.417-0.31c-0.108-0.069-0.225-0.124-0.339-0.184 c-0.168-0.089-0.335-0.18-0.513-0.25c-0.154-0.061-0.315-0.103-0.476-0.148c-0.183-0.051-0.368-0.097-0.555-0.127 c-0.128-0.021-0.26-0.029-0.391-0.04c-0.191-0.015-0.382-0.029-0.574-0.022c-0.125,0.005-0.245,0.024-0.367,0.037 c-0.198,0.022-0.396,0.042-0.589,0.086c-0.102,0.024-0.199,0.063-0.299,0.093c-0.202,0.06-0.405,0.12-0.598,0.206 c-0.149,0.067-0.287,0.152-0.429,0.233c-0.162,0.092-0.323,0.187-0.472,0.296c-0.113,0.082-0.217,0.175-0.323,0.266 c-0.129,0.111-0.258,0.222-0.375,0.346c-0.099,0.105-0.186,0.221-0.276,0.335c-0.105,0.133-0.213,0.265-0.304,0.409 c-0.073,0.115-0.131,0.238-0.195,0.358c-0.085,0.161-0.172,0.32-0.239,0.491c-0.063,0.159-0.107,0.327-0.154,0.494 c-0.049,0.176-0.093,0.353-0.122,0.531c-0.024,0.147-0.035,0.298-0.045,0.45c-0.012,0.168-0.025,0.335-0.02,0.503 c0.005,0.162,0.028,0.318,0.048,0.476c0.021,0.162,0.035,0.325,0.071,0.484c0.033,0.143,0.085,0.279,0.13,0.417 c0.053,0.163,0.098,0.328,0.168,0.486c0.076,0.171,0.173,0.33,0.267,0.491c0.081,0.139,0.162,0.278,0.256,0.408 c0.097,0.134,0.205,0.257,0.314,0.381c0.096,0.109,0.191,0.221,0.296,0.321c0.124,0.118,0.26,0.221,0.395,0.326 c0.114,0.088,0.226,0.18,0.347,0.258c0.137,0.088,0.285,0.159,0.431,0.234c0.138,0.071,0.274,0.146,0.419,0.204 c0.172,0.069,0.354,0.117,0.535,0.167c0.164,0.044,0.329,0.086,0.496,0.113c0.151,0.025,0.307,0.036,0.462,0.047 c0.168,0.011,0.336,0.025,0.505,0.019c0.155-0.005,0.305-0.027,0.457-0.046c0.168-0.021,0.337-0.036,0.503-0.074 c0.141-0.032,0.273-0.083,0.409-0.127c0.165-0.053,0.332-0.099,0.491-0.169c0.174-0.077,0.336-0.176,0.499-0.271 c0.135-0.079,0.269-0.157,0.395-0.248c0.136-0.098,0.261-0.208,0.386-0.319c0.109-0.096,0.219-0.19,0.318-0.294 c0.116-0.122,0.219-0.257,0.322-0.39c0.09-0.117,0.184-0.23,0.264-0.355c0.084-0.131,0.152-0.273,0.224-0.411 c0.075-0.146,0.154-0.288,0.215-0.442c0.065-0.165,0.111-0.338,0.159-0.511c0.047-0.172,0.091-0.345,0.12-0.52 c0.024-0.15,0.035-0.303,0.046-0.457c0.012-0.167,0.025-0.333,0.02-0.5c-0.005-0.158-0.028-0.311-0.047-0.465 c-0.021-0.167-0.036-0.335-0.073-0.5C34.835,28.755,34.787,28.634,34.748,28.51z"
   id="path12" /> <path
   d="M36.768,28.226c0.007,0.028,0.011,0.057,0.018,0.085c0.045,0.179,0.082,0.359,0.113,0.543c0.01,0.06,0.019,0.12,0.028,0.18 c0.024,0.172,0.041,0.345,0.052,0.521c0.005,0.072,0.009,0.144,0.011,0.216C36.991,29.846,37,29.922,37,30 c0,0.094-0.01,0.185-0.014,0.277c-0.003,0.07-0.006,0.14-0.011,0.211c-0.013,0.183-0.033,0.363-0.06,0.542 c-0.005,0.031-0.005,0.062-0.01,0.093c6.069,1.141,11.601-1.318,17.245-7.578c-0.053-0.197-0.11-0.393-0.167-0.588 c-0.049-0.167-0.096-0.335-0.149-0.501c-0.083-0.26-0.172-0.518-0.263-0.774c-0.051-0.143-0.101-0.287-0.154-0.429 c-0.101-0.27-0.207-0.537-0.317-0.803c-0.049-0.119-0.1-0.237-0.151-0.355c-0.123-0.283-0.249-0.564-0.381-0.842 c-0.039-0.081-0.08-0.162-0.12-0.243c-0.864-1.759-1.926-3.403-3.162-4.9c-0.002-0.002-0.003-0.004-0.005-0.005 c-0.098-0.119-0.202-0.232-0.302-0.348c-0.016,0.075-0.034,0.151-0.051,0.227C47.993,18.076,46.279,25.568,36.768,28.226z"
   id="path14" /> <path
   d="M33.529,23.96c0.037,0.022,0.07,0.048,0.107,0.07c0.143,0.087,0.284,0.178,0.42,0.276c0.067,0.048,0.132,0.098,0.198,0.148 c0.119,0.091,0.234,0.185,0.347,0.284c0.068,0.06,0.135,0.12,0.201,0.183c0.107,0.101,0.209,0.206,0.31,0.313 c0.059,0.063,0.117,0.126,0.174,0.191c0.107,0.123,0.208,0.251,0.306,0.381c0.028,0.037,0.059,0.07,0.086,0.107 c5.091-3.472,7.273-9.086,6.835-17.543c-0.186-0.108-0.37-0.219-0.559-0.322c-0.033-0.018-0.066-0.036-0.099-0.054 c-0.317-0.172-0.639-0.337-0.964-0.495c-0.066-0.032-0.133-0.063-0.2-0.094c-0.303-0.144-0.608-0.283-0.917-0.415 c-0.11-0.047-0.221-0.089-0.331-0.134c-0.274-0.112-0.549-0.224-0.828-0.327c-0.394-0.144-0.791-0.281-1.192-0.405 c-0.045-0.014-0.091-0.025-0.137-0.039c-0.389-0.118-0.78-0.229-1.175-0.327c-0.074-0.018-0.148-0.033-0.222-0.051 c-0.368-0.089-0.738-0.172-1.11-0.244c-0.084-0.016-0.169-0.03-0.253-0.045c-0.362-0.066-0.726-0.126-1.092-0.176 c-0.094-0.013-0.188-0.024-0.281-0.036c-0.357-0.045-0.715-0.083-1.074-0.113c-0.049-0.004-0.099-0.008-0.148-0.011 c0.043,0.069,0.087,0.138,0.131,0.208C34.29,8.846,38.376,15.354,33.529,23.96z"
   id="path16" /> <path
   d="M44.12,35.814c-2.672,0-5.385-0.768-8.078-2.283c-0.035,0.06-0.077,0.115-0.114,0.173 c-0.067,0.107-0.134,0.212-0.207,0.315c-0.069,0.098-0.141,0.193-0.215,0.287c-0.068,0.086-0.136,0.171-0.208,0.254 c-0.082,0.096-0.167,0.189-0.255,0.28c-0.075,0.078-0.152,0.153-0.23,0.227c-0.088,0.084-0.177,0.166-0.27,0.245 c-0.093,0.08-0.19,0.155-0.287,0.23c-0.057,0.044-0.109,0.092-0.168,0.134c3.455,5.041,9.149,7.275,17.539,6.836 c0.317-0.546,0.62-1.101,0.895-1.672c0.007-0.014,0.013-0.029,0.02-0.043c0.169-0.351,0.33-0.706,0.483-1.066 c0.01-0.024,0.019-0.047,0.029-0.071c0.372-0.883,0.688-1.794,0.958-2.726c0.075-0.26,0.151-0.519,0.218-0.781 c0.037-0.147,0.068-0.297,0.103-0.445c0.068-0.292,0.135-0.584,0.193-0.878c0.028-0.143,0.052-0.288,0.077-0.432 c0.053-0.301,0.104-0.602,0.146-0.904c0.021-0.146,0.038-0.292,0.056-0.439c0.037-0.301,0.069-0.603,0.095-0.906 c0.006-0.073,0.011-0.147,0.017-0.22c-0.068,0.043-0.136,0.086-0.206,0.13C52.33,33.556,48.73,35.814,44.12,35.814z"
   id="path18" /> <path
   d="M26.471,36.043c-0.059-0.034-0.112-0.075-0.17-0.111c-0.109-0.068-0.217-0.138-0.323-0.212 c-0.094-0.066-0.186-0.136-0.277-0.207c-0.091-0.071-0.18-0.143-0.268-0.219c-0.091-0.079-0.18-0.159-0.266-0.242 c-0.083-0.08-0.163-0.161-0.243-0.245c-0.079-0.084-0.158-0.168-0.233-0.256c-0.083-0.097-0.162-0.198-0.24-0.3 c-0.042-0.054-0.089-0.104-0.129-0.16c-5.09,3.471-7.272,9.084-6.835,17.539c1.814,1.053,3.771,1.885,5.835,2.458 c0.163,0.045,0.325,0.094,0.489,0.136c0.202,0.052,0.408,0.095,0.612,0.142c0.234,0.053,0.467,0.108,0.703,0.154 c0.188,0.037,0.379,0.069,0.568,0.102c0.252,0.044,0.504,0.086,0.758,0.123c0.188,0.027,0.377,0.05,0.567,0.072 c0.255,0.03,0.51,0.058,0.766,0.08c0.094,0.008,0.188,0.014,0.283,0.022c-0.042-0.068-0.085-0.135-0.128-0.204 C25.71,51.158,21.624,44.649,26.471,36.043z"
   id="path20" /> <path
   d="M31.776,36.769c-0.037,0.01-0.076,0.014-0.113,0.023c-0.164,0.04-0.329,0.074-0.497,0.103 c-0.068,0.011-0.135,0.022-0.204,0.031c-0.17,0.024-0.341,0.041-0.515,0.052c-0.07,0.004-0.139,0.008-0.209,0.011 C30.159,36.991,30.081,37,30,37c-0.094,0-0.184-0.01-0.277-0.014c-0.071-0.003-0.141-0.006-0.212-0.011 c-0.176-0.012-0.35-0.032-0.522-0.057c-0.037-0.005-0.075-0.006-0.113-0.012c-1.145,6.057,1.284,11.572,7.579,17.244 c0.242-0.065,0.483-0.134,0.722-0.205c0.108-0.032,0.216-0.062,0.323-0.096c0.308-0.097,0.613-0.202,0.917-0.311 c0.09-0.032,0.18-0.064,0.27-0.097c0.317-0.118,0.631-0.242,0.942-0.372c0.064-0.027,0.127-0.054,0.191-0.081 c0.334-0.143,0.665-0.292,0.992-0.449c0.017-0.008,0.035-0.017,0.052-0.026c1.948-0.944,3.751-2.137,5.378-3.531 c-0.073-0.017-0.148-0.034-0.225-0.051C41.925,47.995,34.434,46.281,31.776,36.769z"
   id="path22" /> <g
   id="g34"> <circle
   cx="7"
   cy="7"
   r="2"
   id="circle24" /> <circle
   cx="53"
   cy="7"
   r="2"
   id="circle26" /> <circle
   cx="7"
   cy="53"
   r="2"
   id="circle28" /> <circle
   cx="53"
   cy="53"
   r="2"
   id="circle30" /> <path
   d="M56.15,0H3.85C1.727,0,0,1.727,0,3.85V56.15C0,58.273,1.727,60,3.85,60H56.15c2.123,0,3.85-1.727,3.85-3.85V3.85 C60,1.727,58.273,0,56.15,0z M53,3c2.206,0,4,1.794,4,4s-1.794,4-4,4s-4-1.794-4-4S50.794,3,53,3z M7,3c2.206,0,4,1.794,4,4 s-1.794,4-4,4S3,9.206,3,7S4.794,3,7,3z M7,57c-2.206,0-4-1.794-4-4s1.794-4,4-4s4,1.794,4,4S9.206,57,7,57z M53,57 c-2.206,0-4-1.794-4-4s1.794-4,4-4s4,1.794,4,4S55.206,57,53,57z M57,30c0,0.02-0.001,0.039-0.001,0.058l0,0.088 c0,0.043-0.005,0.087-0.005,0.13c-0.005,0.509-0.026,1.013-0.059,1.515c-0.009,0.138-0.02,0.276-0.032,0.414 c-0.037,0.459-0.086,0.914-0.146,1.365c-0.014,0.106-0.025,0.212-0.04,0.317c-0.08,0.555-0.176,1.106-0.29,1.65 c-0.016,0.078-0.037,0.155-0.054,0.232c-0.098,0.448-0.207,0.892-0.327,1.331c-0.048,0.178-0.099,0.355-0.151,0.532 c-0.102,0.346-0.212,0.688-0.328,1.029c-0.064,0.19-0.125,0.382-0.193,0.57c-0.16,0.439-0.331,0.872-0.513,1.3 c-0.121,0.285-0.253,0.565-0.383,0.846c-0.079,0.169-0.158,0.338-0.24,0.505c-0.154,0.314-0.313,0.626-0.479,0.935 c-0.033,0.061-0.069,0.121-0.102,0.182c-0.184,0.335-0.363,0.672-0.561,1l-0.271,0.445l-0.031,0.002 c-0.808,1.271-1.716,2.472-2.719,3.587l0.066,0.022l-1.151,1.139c-0.242,0.239-0.497,0.461-0.747,0.691 c-0.048,0.044-0.095,0.089-0.143,0.132c-0.296,0.268-0.597,0.529-0.904,0.783c-0.038,0.031-0.076,0.061-0.114,0.092 c-0.937,0.767-1.92,1.468-2.945,2.099c-0.107,0.066-0.215,0.131-0.323,0.195c-0.946,0.565-1.925,1.07-2.932,1.515 c-0.187,0.083-0.374,0.166-0.564,0.245c-0.274,0.114-0.55,0.223-0.828,0.327c-0.239,0.09-0.481,0.174-0.723,0.257 c-0.247,0.085-0.493,0.174-0.743,0.252c-0.458,0.143-0.921,0.271-1.389,0.39c-0.068,0.017-0.134,0.04-0.202,0.057l-0.507,0.123 l-0.014-0.012c-1.448,0.325-2.937,0.539-4.461,0.62l0.024,0.049L29.855,57c-0.09,0-0.18-0.009-0.27-0.01 c-0.445-0.007-0.887-0.024-1.326-0.052c-0.175-0.011-0.349-0.025-0.523-0.04c-0.409-0.034-0.816-0.078-1.22-0.13 c-0.146-0.019-0.293-0.035-0.439-0.056c-0.533-0.078-1.061-0.169-1.583-0.278c-0.126-0.026-0.251-0.059-0.377-0.087 c-0.395-0.088-0.787-0.183-1.175-0.289c-0.208-0.056-0.414-0.116-0.621-0.177c-0.305-0.091-0.607-0.188-0.907-0.289 c-0.224-0.075-0.45-0.147-0.672-0.228c-0.422-0.155-0.838-0.319-1.25-0.493c-0.312-0.132-0.618-0.276-0.925-0.419 c-0.14-0.066-0.279-0.131-0.418-0.199c-0.332-0.162-0.661-0.33-0.987-0.506c-0.031-0.017-0.062-0.035-0.093-0.052 c-0.358-0.195-0.717-0.387-1.066-0.599l-0.445-0.271l-0.002-0.032c-1.271-0.808-2.472-1.716-3.587-2.719l-0.022,0.066 l-1.139-1.151c-0.238-0.24-0.459-0.495-0.687-0.743c-0.046-0.05-0.094-0.1-0.14-0.151c-0.265-0.293-0.523-0.59-0.774-0.894 c-0.039-0.047-0.076-0.095-0.115-0.143c-0.516-0.632-1.005-1.283-1.46-1.956c-0.005-0.007-0.01-0.014-0.015-0.021 c-0.205-0.303-0.4-0.612-0.592-0.923c-0.077-0.125-0.153-0.251-0.229-0.377c-0.178-0.3-0.355-0.6-0.522-0.906 c-0.047-0.086-0.089-0.175-0.135-0.262c-0.291-0.55-0.563-1.109-0.815-1.678c-0.095-0.214-0.19-0.428-0.28-0.646 c-0.106-0.257-0.208-0.515-0.306-0.775c-0.101-0.266-0.194-0.536-0.287-0.806c-0.076-0.223-0.157-0.445-0.227-0.67 c-0.146-0.468-0.278-0.942-0.399-1.42c-0.016-0.063-0.037-0.123-0.052-0.186l-0.123-0.507l0.012-0.013 c-0.325-1.447-0.539-2.936-0.62-4.46l-0.047,0.023l0.008-1.438C3.001,30.025,3,30.013,3,30c0-0.02,0.001-0.039,0.002-0.059 l0-0.083c0-0.041,0.004-0.082,0.005-0.123c0.005-0.514,0.026-1.023,0.06-1.53c0.009-0.133,0.02-0.266,0.03-0.398 c0.038-0.469,0.087-0.934,0.149-1.396c0.013-0.096,0.023-0.192,0.037-0.287c0.081-0.563,0.178-1.121,0.293-1.672 c0.012-0.056,0.027-0.111,0.039-0.167c0.102-0.474,0.219-0.942,0.346-1.406c0.044-0.161,0.09-0.322,0.137-0.482 c0.11-0.373,0.228-0.742,0.353-1.109c0.056-0.166,0.109-0.333,0.169-0.497c0.165-0.454,0.342-0.903,0.531-1.346 c0.107-0.253,0.225-0.501,0.34-0.75c0.097-0.209,0.194-0.417,0.296-0.622c0.14-0.285,0.284-0.568,0.435-0.848 c0.068-0.126,0.14-0.249,0.21-0.374c0.158-0.283,0.307-0.57,0.476-0.847l0.271-0.445l0.029-0.002 c0.808-1.271,1.716-2.473,2.719-3.588l-0.063-0.021l1.151-1.139c0.197-0.195,0.407-0.375,0.609-0.564 c0.115-0.107,0.23-0.216,0.347-0.321c0.253-0.228,0.509-0.45,0.77-0.667c0.122-0.102,0.248-0.2,0.372-0.3 c0.476-0.382,0.963-0.747,1.461-1.096c0.134-0.093,0.265-0.19,0.4-0.281c0.258-0.173,0.519-0.338,0.783-0.502 c0.187-0.117,0.376-0.23,0.566-0.343c0.25-0.147,0.499-0.295,0.754-0.434c0.338-0.185,0.682-0.361,1.029-0.532 c0.27-0.133,0.542-0.258,0.817-0.382c0.283-0.128,0.568-0.253,0.856-0.372c0.214-0.087,0.428-0.172,0.644-0.254 c0.335-0.128,0.674-0.247,1.016-0.362c0.162-0.054,0.321-0.113,0.484-0.164c0.495-0.156,0.998-0.295,1.505-0.423 c0.048-0.012,0.094-0.028,0.142-0.04l0.506-0.123l0.012,0.01c1.448-0.325,2.938-0.539,4.463-0.62l-0.022-0.045l1.373,0.007 C29.933,3.002,29.966,3,30,3c0.62,0,1.234,0.029,1.844,0.07c0.098,0.007,0.195,0.015,0.293,0.022 c0.515,0.041,1.026,0.094,1.533,0.164c0.058,0.008,0.116,0.014,0.174,0.022c0.582,0.083,1.159,0.183,1.729,0.303 c0.018,0.004,0.036,0.009,0.055,0.013c0.513,0.109,1.02,0.236,1.522,0.374c0.143,0.039,0.285,0.08,0.427,0.121 c0.395,0.116,0.787,0.241,1.174,0.374c0.149,0.051,0.3,0.098,0.449,0.152c0.46,0.167,0.915,0.346,1.363,0.538 c0.248,0.105,0.491,0.22,0.735,0.333c0.213,0.099,0.425,0.198,0.635,0.302c0.284,0.14,0.566,0.283,0.845,0.434 c0.123,0.066,0.244,0.137,0.366,0.205c0.285,0.159,0.575,0.31,0.855,0.48l0.445,0.271l0.002,0.029 c1.271,0.808,2.472,1.716,3.588,2.719l0.022-0.064l1.139,1.151c0.205,0.207,0.394,0.427,0.592,0.641 c0.093,0.1,0.187,0.199,0.278,0.3c0.236,0.262,0.467,0.528,0.693,0.799c0.087,0.104,0.171,0.212,0.256,0.318 c0.414,0.513,0.809,1.04,1.183,1.58c0.071,0.103,0.146,0.204,0.216,0.307c0.181,0.27,0.355,0.544,0.526,0.82 c0.105,0.169,0.208,0.34,0.31,0.512c0.157,0.265,0.313,0.53,0.461,0.8c0.138,0.252,0.266,0.509,0.396,0.766 c0.187,0.37,0.366,0.745,0.536,1.123c0.114,0.254,0.227,0.509,0.333,0.767c0.096,0.234,0.189,0.469,0.279,0.705 c0.114,0.3,0.22,0.603,0.323,0.908c0.066,0.195,0.136,0.387,0.198,0.583c0.15,0.478,0.284,0.963,0.408,1.452 c0.015,0.058,0.034,0.114,0.048,0.172l0.123,0.507l-0.011,0.013c0.325,1.448,0.539,2.937,0.62,4.462l0.047-0.023l-0.008,1.435 C56.999,29.975,57,29.987,57,30z"
   id="path32" /> </g> </g> </g>

</svg>
