<?xml version="1.0" encoding="UTF-8" standalone="no"?>
<!-- Uploaded to: SVG Repo, www.svgrepo.com, Transformed by: SVG Repo Mixer Tools -->

<svg
   version="1.1"
   id="Layer_1"
   viewBox="-51.2 -51.2 614.40 614.40"
   xml:space="preserve"
   width="800px"
   height="800px"
   fill="#000000"
   sodipodi:docname="mouse.svg"
   inkscape:version="1.2.1 (9c6d41e410, 2022-07-14)"
   xmlns:inkscape="http://www.inkscape.org/namespaces/inkscape"
   xmlns:sodipodi="http://sodipodi.sourceforge.net/DTD/sodipodi-0.dtd"
   xmlns="http://www.w3.org/2000/svg"
   xmlns:svg="http://www.w3.org/2000/svg"><defs
   id="defs38" /><sodipodi:namedview
   id="namedview36"
   pagecolor="#505050"
   bordercolor="#ffffff"
   borderopacity="1"
   inkscape:showpageshadow="0"
   inkscape:pageopacity="0"
   inkscape:pagecheckerboard="1"
   inkscape:deskcolor="#505050"
   showgrid="false"
   inkscape:zoom="1.09625"
   inkscape:cx="400.9122"
   inkscape:cy="400.4561"
   inkscape:window-width="1920"
   inkscape:window-height="1057"
   inkscape:window-x="-8"
   inkscape:window-y="-8"
   inkscape:window-maximized="1"
   inkscape:current-layer="SVGRepo_iconCarrier" />



<g
   id="SVGRepo_tracerCarrier"
   stroke-linecap="round"
   stroke-linejoin="round" />

<g
   id="SVGRepo_iconCarrier">       <path
   style="fill:#ffffff;stroke-width:3.84;stroke-dasharray:none;stroke:#ffffff;stroke-opacity:1;fill-opacity:1"
   d="M432.061,330.972c-0.011-0.348-0.025-0.695-0.04-1.04l-0.033-0.843 c-0.036-0.99-0.072-1.981-0.125-2.944c-0.024-0.454-0.056-0.905-0.088-1.357l-0.037-0.535c-0.063-0.984-0.127-1.969-0.207-2.962 c-0.035-0.412-0.073-0.822-0.113-1.233l-0.097-1.036c-0.079-0.845-0.16-1.69-0.25-2.499c-0.056-0.518-0.117-1.033-0.181-1.549 l-0.06-0.492c-0.112-0.918-0.223-1.833-0.347-2.73c-0.066-0.492-0.139-0.981-0.212-1.47l-0.083-0.564 c-0.134-0.895-0.269-1.786-0.42-2.714c-0.086-0.514-0.176-1.026-0.265-1.538l-0.081-0.462c-0.16-0.895-0.321-1.787-0.492-2.67 c-0.127-0.662-0.262-1.322-0.398-1.984c-0.183-0.892-0.371-1.782-0.567-2.671c-0.143-0.647-0.29-1.292-0.438-1.927 c-0.209-0.901-0.427-1.798-0.649-2.682c-0.156-0.627-0.315-1.255-0.485-1.909c-0.238-0.899-0.48-1.796-0.741-2.724 c-0.165-0.595-0.331-1.19-0.504-1.784c-0.265-0.908-0.538-1.812-0.82-2.727l-0.126-0.407c-0.134-0.435-0.268-0.872-0.413-1.323 c-0.3-0.935-0.609-1.862-0.924-2.79l-0.174-0.516c-0.122-0.364-0.246-0.729-0.373-1.096c-0.337-0.966-0.689-1.925-1.052-2.911 l-0.536-1.448c-0.388-1.024-0.792-2.042-1.201-3.061l-0.177-0.445c-0.106-0.267-0.21-0.532-0.316-0.79 c-0.47-1.149-0.958-2.287-1.461-3.446l-0.105-0.245c-0.087-0.207-0.176-0.415-0.24-0.556c-0.538-1.226-1.092-2.444-1.659-3.655 c-0.142-0.37-0.31-0.726-0.502-1.067c-1.264-2.647-2.628-5.325-4.059-7.969c-10.326-21.371-15.958-42.086-16.904-61.982 c0.028-0.333,0.043-0.668,0.03-1.006c-2.109-53.353,30.49-84.848,32.846-87.048c0.002-0.002,0.004-0.004,0.007-0.006 c0.066-0.061,0.102-0.095,0.116-0.107c0.001-0.001,0.008-0.006,0.009-0.008c0.409-0.361,0.772-0.755,1.09-1.173 c0.003-0.004,0.005-0.009,0.009-0.012c0.155-0.205,0.301-0.416,0.434-0.633c0.11-0.178,0.207-0.361,0.302-0.545 c0.023-0.044,0.051-0.086,0.072-0.132c0.078-0.158,0.143-0.322,0.21-0.485c0.03-0.073,0.067-0.146,0.095-0.22 c0.811-2.149,0.683-4.591-0.434-6.674c-0.248-0.462-0.545-0.908-0.893-1.328c-2.086-2.53-4.303-5.065-6.593-7.538 c-32.878-35.481-76.864-61.154-120.677-70.437c-2.385-0.507-4.871,0.093-6.765,1.628c-1.895,1.535-2.994,3.843-2.994,6.281v37.841 h-12.908V22.063C278.061,9.898,268.163,0,255.998,0c-12.166,0-22.064,9.898-22.064,22.063v36.554h-12.907V20.775 c0-2.438-1.101-4.746-2.994-6.281c-1.421-1.15-3.174-1.775-4.969-1.802c-0.598-0.009-1.201,0.049-1.797,0.175 c-43.814,9.282-87.799,34.956-120.677,70.436c-2.269,2.448-4.487,4.984-6.593,7.539c-0.172,0.209-0.333,0.425-0.481,0.646 c-0.016,0.024-0.029,0.05-0.044,0.074c-1.292,1.974-1.621,4.362-1.032,6.541c0.001,0.005,0.004,0.011,0.005,0.016 c0.399,1.463,1.209,2.829,2.418,3.91c0.352,0.314,35.172,32.099,32.995,87.184c-0.013,0.338,0.002,0.675,0.03,1.009 c-0.946,19.896-6.578,40.609-16.904,61.98c-1.514,2.799-2.95,5.63-4.27,8.415c-0.015,0.031-0.03,0.064-0.045,0.096 c-0.003,0.008-0.006,0.015-0.01,0.023c-0.648,1.373-1.278,2.756-1.891,4.145l-0.357,0.834c-0.495,1.136-0.983,2.275-1.442,3.4 c-0.114,0.278-0.225,0.558-0.335,0.838l-0.171,0.429c-0.405,1.013-0.808,2.029-1.195,3.048c-0.13,0.345-0.258,0.693-0.385,1.04 l-0.161,0.439c-0.354,0.958-0.705,1.919-1.037,2.87c-0.138,0.392-0.272,0.788-0.404,1.184l-0.157,0.465 c-0.312,0.925-0.621,1.849-0.921,2.787c-0.183,0.577-0.362,1.155-0.536,1.724c-0.28,0.911-0.557,1.821-0.824,2.738 c-0.175,0.604-0.345,1.208-0.512,1.81c-0.251,0.9-0.498,1.801-0.732,2.7c-0.163,0.623-0.321,1.248-0.481,1.884 c-0.222,0.89-0.439,1.783-0.645,2.67c-0.151,0.648-0.3,1.298-0.441,1.939c-0.197,0.888-0.385,1.779-0.571,2.685 c-0.133,0.652-0.266,1.309-0.397,1.98c-0.17,0.887-0.332,1.777-0.488,2.666l-0.019,0.113c-0.112,0.632-0.224,1.263-0.33,1.904 c-0.148,0.896-0.283,1.794-0.418,2.695l-0.05,0.331c-0.085,0.566-0.169,1.131-0.248,1.707c-0.117,0.866-0.224,1.731-0.33,2.602 l-0.074,0.609c-0.064,0.512-0.126,1.022-0.182,1.539c-0.091,0.831-0.169,1.666-0.248,2.502l-0.081,0.855 c-0.045,0.474-0.091,0.946-0.132,1.441c-0.069,0.854-0.126,1.712-0.181,2.57l-0.06,0.893c-0.032,0.457-0.064,0.913-0.087,1.356 c-0.056,1.027-0.095,2.061-0.133,3.092l-0.029,0.719c-0.015,0.35-0.03,0.702-0.04,1.049c-0.045,1.623-0.068,3.253-0.068,4.886 c0,7.488,0.475,15.031,1.415,22.426c0.372,2.923,0.821,5.864,1.336,8.743c0.51,2.853,1.102,5.747,1.76,8.602 c18.056,78.217,86.762,134.268,167.07,136.303c1.512,0.04,3.03,0.058,4.551,0.058c1.519,0,3.039-0.018,4.541-0.057 c42.193-1.069,82.639-17.299,113.887-45.699c31.034-28.206,51.023-66.544,56.289-107.951c0.938-7.385,1.414-14.929,1.414-22.423 C432.129,334.236,432.105,332.607,432.061,330.972z M255.998,391.25c-6.903,0-12.519-5.616-12.519-12.518 s5.616-12.517,12.519-12.517c6.901,0,12.515,5.615,12.515,12.517C268.514,385.634,262.899,391.25,255.998,391.25z M221.026,153.152 v-15.343h69.942v15.343H221.026z M290.968,121.64h-69.942v-15.344h69.942V121.64z M250.102,22.063c0-3.251,2.645-5.895,5.896-5.895 s5.895,2.644,5.895,5.895v36.554h-11.791V22.063z M242.018,74.785h27.959h20.992v15.343h-69.942V74.785H242.018z M119.174,78.022 c2.921-2.565,5.906-5.054,8.945-7.462c1.013-0.803,2.033-1.597,3.058-2.382c22.56-17.27,48.005-30.165,73.681-37.133v35.657v31.511 v31.511v31.511v20.212h-70.756c-0.834-44.585-22.381-74.032-32.899-85.793c0.413-0.457,0.829-0.911,1.246-1.361 C107.737,88.587,113.33,83.152,119.174,78.022z M100.132,372.005c-0.598-2.592-1.135-5.22-1.597-7.81 c-0.468-2.615-0.875-5.287-1.214-7.941c-0.854-6.717-1.286-13.576-1.286-20.385c0-1.484,0.022-2.966,0.063-4.448 c0.008-0.26,0.019-0.516,0.03-0.775l0.034-0.84c0.034-0.931,0.068-1.867,0.12-2.81c0.019-0.366,0.046-0.732,0.071-1.096l0.066-0.978 c0.05-0.77,0.099-1.539,0.16-2.285c0.034-0.409,0.073-0.815,0.113-1.222l0.085-0.903c0.07-0.749,0.139-1.499,0.221-2.242 c0.049-0.443,0.103-0.882,0.157-1.324l0.078-0.631c0.097-0.796,0.193-1.588,0.3-2.368c0.069-0.502,0.144-1.001,0.219-1.502 l0.051-0.34c0.122-0.819,0.245-1.637,0.378-2.448c0.095-0.573,0.196-1.146,0.298-1.717l0.022-0.12 c0.143-0.813,0.29-1.623,0.442-2.416c0.117-0.608,0.241-1.214,0.362-1.807c0.166-0.808,0.336-1.615,0.516-2.428 c0.129-0.585,0.263-1.171,0.401-1.762c0.189-0.812,0.385-1.62,0.584-2.417c0.143-0.573,0.29-1.147,0.44-1.725 c0.213-0.816,0.435-1.631,0.663-2.446c0.153-0.55,0.307-1.101,0.465-1.644c0.24-0.828,0.492-1.652,0.749-2.489 c0.16-0.522,0.321-1.047,0.484-1.558c0.273-0.853,0.556-1.698,0.835-2.528l0.163-0.483c0.11-0.328,0.22-0.654,0.34-0.996 c0.306-0.876,0.625-1.747,0.947-2.621l0.182-0.496c0.101-0.278,0.203-0.556,0.308-0.834c0.354-0.93,0.721-1.856,1.087-2.767 l0.46-1.153c0.424-1.036,0.864-2.064,1.323-3.117l0.31-0.728c0.553-1.253,1.12-2.496,1.7-3.734c0.031-0.063,0.061-0.125,0.091-0.189 c1.213-2.559,2.536-5.163,3.935-7.741c0.059-0.109,0.116-0.22,0.17-0.332c11.01-22.737,16.287-43.447,17.974-61.797h79.511 c4.465,0,8.084-3.618,8.084-8.084v-20.212h26.887v181.894c-11.892,3.5-20.603,14.507-20.603,27.518 c0,13.011,8.709,24.019,20.603,27.519v89.376C176.679,492.076,116.231,441.745,100.132,372.005z M414.675,356.253 c-9.695,76.249-74.07,135.506-150.593,139.374V406.25c11.891-3.5,20.6-14.508,20.6-27.519s-8.708-24.018-20.6-27.518V169.32h26.886 v20.212c0,4.466,3.618,8.084,8.084,8.084h23.057c4.466,0,8.084-3.618,8.084-8.084s-3.618-8.084-8.084-8.084h-14.973v-20.212v-31.511 V98.212V66.701V31.044c16.403,4.452,32.712,11.324,48.235,20.209c19.818,11.344,38.356,25.97,54.173,43.037 c0.419,0.453,0.834,0.908,1.247,1.364c-10.519,11.761-32.065,41.207-32.898,85.793h-30.634c-4.465,0-8.084,3.618-8.084,8.084 s3.62,8.084,8.084,8.084h31.306c1.687,18.35,6.964,39.06,17.974,61.797c0.054,0.112,0.111,0.222,0.169,0.331 c1.373,2.534,2.679,5.098,3.883,7.628c0.032,0.074,0.067,0.15,0.102,0.224c0.597,1.259,1.175,2.526,1.765,3.866l0.3,0.698 c0.445,1.025,0.887,2.054,1.314,3.099l0.453,1.138c0.37,0.919,0.736,1.843,1.089,2.77l0.494,1.337 c0.321,0.87,0.64,1.742,0.945,2.615c0.107,0.305,0.208,0.612,0.312,0.919l0.192,0.567c0.287,0.844,0.567,1.685,0.834,2.517 c0.123,0.387,0.244,0.776,0.363,1.164l0.127,0.413c0.255,0.83,0.506,1.661,0.749,2.493c0.153,0.521,0.296,1.044,0.464,1.644 c0.23,0.817,0.451,1.636,0.66,2.43c0.149,0.569,0.293,1.14,0.438,1.724c0.202,0.802,0.397,1.606,0.585,2.42 c0.137,0.587,0.272,1.177,0.402,1.766c0.178,0.805,0.348,1.613,0.514,2.418c0.122,0.599,0.245,1.201,0.362,1.812 c0.157,0.805,0.302,1.614,0.442,2.404l0.08,0.452c0.082,0.469,0.164,0.939,0.237,1.373c0.134,0.822,0.259,1.646,0.379,2.452 l0.085,0.578c0.064,0.425,0.126,0.849,0.188,1.291c0.113,0.82,0.212,1.642,0.311,2.465l0.065,0.521 c0.053,0.434,0.107,0.87,0.157,1.34c0.083,0.747,0.154,1.499,0.224,2.252l0.099,1.059c0.033,0.346,0.066,0.692,0.094,1.024 c0.072,0.882,0.129,1.769,0.188,2.682l0.044,0.639c0.025,0.349,0.051,0.7,0.07,1.074c0.049,0.885,0.08,1.776,0.112,2.666 l0.039,0.963c0.012,0.265,0.024,0.53,0.03,0.786c0.04,1.476,0.063,2.959,0.063,4.444 C415.96,342.684,415.528,349.543,414.675,356.253z"
   id="path24" />     </g>

</svg>
