<svg width="69" height="103" viewBox="0 0 69 103" fill="none" xmlns="http://www.w3.org/2000/svg">
<path fill-rule="evenodd" clip-rule="evenodd" d="M34.5 2C30.5316 2 28.8347 3.15517 27.2303 5.44828H41.7697C40.1653 3.15517 38.4684 2 34.5 2ZM43.0526 8.89655H25.9474C24.058 8.89655 22.5263 10.4404 22.5263 12.3448V19.2414C22.5263 21.1458 24.058 22.6896 25.9474 22.6896H43.0526C44.942 22.6896 46.4737 21.1458 46.4737 19.2414V12.3448C46.4737 10.4404 44.942 8.89655 43.0526 8.89655ZM16.377 75.2621C12.0469 73.2849 9.15242 69.0611 8.85066 64.2793L5.72895 48.5517H3.71053C2.76583 48.5517 2 47.7798 2 46.8276C2 45.8754 2.76583 45.1035 3.71053 45.1035H10.5526C11.4973 45.1035 12.2632 45.8754 12.2632 46.8276C12.2632 47.7798 11.4973 48.5517 10.5526 48.5517H9.21842L11.3104 59.1C11.6153 58.9817 11.9369 58.913 12.2632 58.8966C13.0538 58.9392 13.7939 59.3016 14.3158 59.9017C15.2799 61.452 15.7568 63.2597 15.6842 65.0879V65.7931C15.6388 68.9638 15.8706 72.1324 16.377 75.2621ZM58.4474 45.1035H65.2895C66.2342 45.1035 67.0001 45.8754 67.0001 46.8276C67.0001 47.7798 66.2342 48.5517 65.2895 48.5517H63.2711L60.1443 64.2793C59.8425 69.0611 56.948 73.2849 52.618 75.2621C53.126 72.1325 53.3596 68.964 53.3159 65.7931V65.0879C53.2437 63.2603 53.7206 61.4533 54.6843 59.9035C55.206 59.3029 55.9461 58.9399 56.7369 58.8966C57.0634 58.9114 57.3849 58.982 57.688 59.1052L59.7817 48.5517H58.4474C57.5027 48.5517 56.7369 47.7798 56.7369 46.8276C56.7369 45.8754 57.5027 45.1035 58.4474 45.1035ZM17.2237 52.9051C17.3075 51.1586 17.3947 49.1775 17.3947 46.8275C17.3942 42.4235 16.0269 38.1299 13.4845 34.5482C11.6652 32.1193 10.6406 29.18 10.5526 26.1379C10.5526 21.962 12.217 20.9775 15.2343 19.193C16.5899 18.4268 17.8841 17.5552 19.1053 16.5862V19.2413C19.1053 23.0502 22.1686 26.1379 25.9474 26.1379H26.9292C23.9438 36.205 22.4678 46.6654 22.5503 57.1724H20.8158C19.5928 57.176 18.4122 57.6241 17.4905 58.4344C17.3913 58.2775 17.287 58.1258 17.1758 57.9793C17.0989 56.2883 17.1149 54.5943 17.2237 52.9051ZM49.8794 67.1397C49.8481 69.6803 49.6377 72.2154 49.2499 74.7259C49.1057 75.5486 48.3939 76.1466 47.5651 76.1414H21.4419C20.6162 76.1428 19.9073 75.5495 19.757 74.7311C19.3636 72.2211 19.151 69.6858 19.1207 67.1449C21.9625 66.9741 24.812 67.3097 27.5382 68.1362C29.8124 68.7572 32.1466 69.1277 34.5001 69.2414C36.8537 69.126 39.1879 68.7537 41.4619 68.1311C44.1884 67.3057 47.0376 66.9701 49.8794 67.1397ZM42.0708 26.1379C45.0563 36.205 46.5322 46.6654 46.4498 57.1724H48.1842C49.4055 57.1773 50.5841 57.6253 51.5044 58.4344C51.6036 58.2775 51.7079 58.1241 51.8191 57.9793C51.896 56.2883 51.88 54.5943 51.7712 52.9051C51.6925 51.1586 51.6053 49.1775 51.6053 46.8275C51.6058 42.4235 52.9731 38.1299 55.5156 34.5482C57.3349 32.1193 58.3595 29.18 58.4474 26.1379C58.4474 21.962 56.7831 20.9775 53.7657 19.193C52.4101 18.4268 51.1159 17.5552 49.8948 16.5862V19.2413C49.8948 23.0502 46.8315 26.1379 43.0527 26.1379H42.0708ZM48.1842 60.6207C49.1289 60.6207 49.8947 61.3926 49.8947 62.3448V63.6862C46.7896 63.5342 43.681 63.9024 40.6955 64.7759C38.6715 65.3334 36.5949 65.6743 34.5 65.7931C32.4051 65.6743 30.3285 65.3334 28.3045 64.7759C25.3188 63.9033 22.2103 63.5351 19.1053 63.6862V62.3448C19.1053 61.3926 19.8711 60.6207 20.8158 60.6207H48.1842ZM30.552 26.1379C29.4247 29.3448 26.1833 40.0517 25.9712 57.1724H43.0285C42.8164 40.0517 39.575 29.3448 38.4478 26.1379H30.552ZM12.2632 91.6552C12.2632 89.7508 13.7948 88.2069 15.6842 88.2069H53.3158C55.2052 88.2069 56.7368 89.7508 56.7368 91.6552V93.3793C56.7368 94.3315 55.971 95.1035 55.0263 95.1035H53.3231C55.2091 95.1074 56.7369 96.6497 56.7369 98.5517C56.7369 100.456 55.2052 102 53.3158 102C51.4264 102 49.8947 100.456 49.8947 98.5517C49.8947 96.6497 51.4225 95.1074 53.3085 95.1035H34.5073C36.3933 95.1074 37.9211 96.6497 37.9211 98.5517C37.9211 100.456 36.3894 102 34.5 102C32.6106 102 31.0789 100.456 31.0789 98.5517C31.0789 96.6497 32.6067 95.1074 34.4927 95.1035H15.6915C17.5775 95.1074 19.1053 96.6497 19.1053 98.5517C19.1053 100.456 17.5736 102 15.6842 102C13.7948 102 12.2632 100.456 12.2632 98.5517C12.2632 96.6497 13.7909 95.1074 15.6769 95.1035H13.9737C13.029 95.1035 12.2632 94.3315 12.2632 93.3793V91.6552ZM31.0789 77.8621H37.9211C38.8658 77.8621 39.6316 78.634 39.6316 79.5862V84.7586C39.6316 85.7108 38.8658 86.4827 37.9211 86.4827H31.0789C30.1343 86.4827 29.3684 85.7108 29.3684 84.7586V79.5862C29.3684 78.634 30.1343 77.8621 31.0789 77.8621Z" fill="url(#paint0_linear_46_94)"/>
<defs>
<linearGradient id="paint0_linear_46_94" x1="34.5" y1="2" x2="34.5" y2="102" gradientUnits="userSpaceOnUse">
<stop offset="0.197917" stop-color="#0E18F1"/>
<stop offset="1" stop-color="white"/>
</linearGradient>
</defs>
</svg>
