<svg width="85" height="83" viewBox="0 0 85 83" fill="none" xmlns="http://www.w3.org/2000/svg">
<path fill-rule="evenodd" clip-rule="evenodd" d="M46.4472 5.28457C47.9287 3.82178 49.9381 3 52.0333 3H73.1C75.1952 3 77.2046 3.82178 78.6861 5.28457C80.1677 6.74735 81 8.73131 81 10.8V73.2C81 75.2687 80.1677 77.2526 78.6861 78.7154C77.2046 80.1782 75.1952 81 73.1 81H23.0667V75.8H33.6V65.4H9.9C7.80479 65.4 5.79539 64.5782 4.31386 63.1154C2.83232 61.6526 2 59.6687 2 57.6V26.4C2 24.3313 2.83232 22.3474 4.31386 20.8846C5.79539 19.4218 7.80479 18.6 9.9 18.6H44.1333V10.8C44.1333 8.73131 44.9656 6.74735 46.4472 5.28457ZM38.8667 75.8H44.581C44.2913 74.9888 44.1333 74.11 44.1333 73.2V65.4H38.8667V75.8ZM73.1 75.8H52.0333C51.3349 75.8 50.6651 75.5261 50.1713 75.0385C49.6774 74.5509 49.4 73.8896 49.4 73.2V34.2H75.7333V73.2C75.7333 73.8896 75.4559 74.5509 74.962 75.0385C74.4682 75.5261 73.7984 75.8 73.1 75.8ZM75.7333 29H49.4V10.8C49.4 10.1104 49.6774 9.44912 50.1713 8.96152C50.6651 8.47393 51.3349 8.2 52.0333 8.2H73.1C73.7984 8.2 74.4682 8.47393 74.962 8.96152C75.4559 9.44912 75.7333 10.1104 75.7333 10.8V29ZM69.6 65.4H54V60.2H69.6V65.4Z" fill="url(#paint0_linear_43_30)"/>
<defs>
<linearGradient id="paint0_linear_43_30" x1="41" y1="3" x2="41" y2="81" gradientUnits="userSpaceOnUse">
<stop stop-color="#FFDCDC"/>
<stop offset="1" stop-color="#FF0000"/>
</linearGradient>
</defs>
</svg>
