<svg width="78" height="78" viewBox="0 0 78 78" fill="none" xmlns="http://www.w3.org/2000/svg">
<path d="M39 0C28.4164 0 27.0855 0.04875 22.9271 0.234C18.7688 0.429 15.9364 1.08225 13.455 2.0475C10.8522 3.02649 8.49465 4.56215 6.54713 6.54713C4.56337 8.49564 3.0279 10.8529 2.0475 13.455C1.08225 15.9315 0.424125 18.7687 0.234 22.9125C0.04875 27.0806 0 28.4066 0 39.0049C0 49.5934 0.04875 50.9194 0.234 55.0778C0.429 59.2313 1.08225 62.0636 2.0475 64.545C3.04688 67.1092 4.37775 69.2835 6.54713 71.4529C8.71163 73.6222 10.8859 74.958 13.4501 75.9525C15.9364 76.9177 18.7639 77.5759 22.9174 77.766C27.0806 77.9512 28.4066 78 39 78C49.5934 78 50.9145 77.9512 55.0778 77.766C59.2264 77.571 62.0685 76.9177 64.5499 75.9525C67.151 74.973 69.5069 73.4374 71.4529 71.4529C73.6222 69.2835 74.9531 67.1092 75.9525 64.545C76.9129 62.0636 77.571 59.2313 77.766 55.0778C77.9512 50.9194 78 49.5934 78 39C78 28.4066 77.9512 27.0806 77.766 22.9174C77.571 18.7688 76.9129 15.9315 75.9525 13.455C74.9722 10.8528 73.4367 8.49554 71.4529 6.54713C69.506 4.56142 67.1482 3.02565 64.545 2.0475C62.0588 1.08225 59.2215 0.424125 55.0729 0.234C50.9096 0.04875 49.5885 0 38.9902 0H39.0049H39ZM35.5046 7.02975H39.0049C49.4179 7.02975 50.6512 7.06388 54.7609 7.254C58.5634 7.42463 60.6304 8.06325 62.0051 8.59463C63.8235 9.3015 65.1251 10.1497 66.4901 11.5147C67.8551 12.8798 68.6985 14.1765 69.4054 15.9998C69.9416 17.3696 70.5754 19.4366 70.746 23.2391C70.9361 27.3488 70.9751 28.5821 70.9751 38.9902C70.9751 49.3984 70.9361 50.6366 70.746 54.7462C70.5754 58.5487 69.9368 60.6109 69.4054 61.9856C68.7801 63.679 67.7821 65.2101 66.4852 66.4658C65.1202 67.8307 63.8235 68.6741 62.0003 69.381C60.6353 69.9173 58.5682 70.551 54.7609 70.7265C50.6512 70.9118 49.4179 70.9556 39.0049 70.9556C28.5919 70.9556 27.3536 70.9118 23.244 70.7265C19.4415 70.551 17.3794 69.9173 16.0046 69.381C14.3106 68.7566 12.778 67.7604 11.5196 66.4658C10.2217 65.2082 9.22215 63.6756 8.59463 61.9807C8.06325 60.6109 7.42463 58.5439 7.254 54.7414C7.06875 50.6318 7.02975 49.3984 7.02975 38.9805C7.02975 28.5675 7.06875 27.339 7.254 23.2294C7.4295 19.4269 8.06325 17.3599 8.5995 15.9851C9.30638 14.1667 10.1546 12.8651 11.5196 11.5001C12.8846 10.1351 14.1814 9.29175 16.0046 8.58488C17.3794 8.04862 19.4415 7.41488 23.244 7.23938C26.8418 7.07363 28.236 7.02488 35.5046 7.02V7.02975ZM59.8211 13.5037C59.2065 13.5037 58.598 13.6248 58.0302 13.86C57.4624 14.0952 56.9464 14.4399 56.5119 14.8745C56.0773 15.3091 55.7326 15.825 55.4974 16.3928C55.2622 16.9606 55.1411 17.5692 55.1411 18.1838C55.1411 18.7983 55.2622 19.4069 55.4974 19.9747C55.7326 20.5425 56.0773 21.0584 56.5119 21.493C56.9464 21.9276 57.4624 22.2723 58.0302 22.5075C58.598 22.7427 59.2065 22.8638 59.8211 22.8638C61.0623 22.8638 62.2527 22.3707 63.1304 21.493C64.0081 20.6153 64.5011 19.425 64.5011 18.1838C64.5011 16.9425 64.0081 15.7522 63.1304 14.8745C62.2527 13.9968 61.0623 13.5037 59.8211 13.5037ZM39.0049 18.9735C36.3483 18.9321 33.7101 19.4195 31.2438 20.4074C28.7774 21.3954 26.5323 22.8641 24.639 24.7281C22.7457 26.592 21.2421 28.814 20.2159 31.2646C19.1896 33.7153 18.661 36.3456 18.661 39.0024C18.661 41.6593 19.1896 44.2896 20.2159 46.7402C21.2421 49.1909 22.7457 51.4128 24.639 53.2768C26.5323 55.1408 28.7774 56.6095 31.2438 57.5974C33.7101 58.5854 36.3483 59.0728 39.0049 59.0314C44.2628 58.9493 49.2775 56.8031 52.9668 53.0558C56.656 49.3086 58.7238 44.261 58.7238 39.0024C58.7238 33.7439 56.656 28.6963 52.9668 24.949C49.2775 21.2018 44.2628 19.0555 39.0049 18.9735ZM39.0049 25.9984C42.4531 25.9984 45.7601 27.3682 48.1984 29.8065C50.6367 32.2447 52.0065 35.5518 52.0065 39C52.0065 42.4482 50.6367 45.7553 48.1984 48.1935C45.7601 50.6318 42.4531 52.0016 39.0049 52.0016C35.5566 52.0016 32.2496 50.6318 29.8113 48.1935C27.3731 45.7553 26.0033 42.4482 26.0033 39C26.0033 35.5518 27.3731 32.2447 29.8113 29.8065C32.2496 27.3682 35.5566 25.9984 39.0049 25.9984Z" fill="white"/>
</svg>
