<svg width="81" height="81" viewBox="0 0 81 81" fill="none" xmlns="http://www.w3.org/2000/svg">
<path d="M70.1199 61.8C66.9999 63.36 62.8399 62.32 60.7599 59.2L55.0399 51.92H26.9599L21.2399 59.2C18.6399 62.84 13.9599 63.36 10.3199 60.76C7.71995 58.68 6.67995 55.56 7.19995 52.96L10.8399 33.72C11.8799 27.48 17.5999 22.8 23.8399 22.8H38.3999V15C38.3999 10.84 41.5199 7.20001 45.6799 7.20001H61.7999C63.3599 7.20001 64.3999 8.24001 64.3999 9.80001C64.3999 11.36 63.3599 12.4 61.7999 12.4H46.1999C44.6399 12.4 43.5999 13.44 43.5999 14.48V22.8H58.1599C64.3999 22.8 70.1199 27.48 71.1599 33.72L74.7999 52.96C75.3199 56.6 73.7599 60.24 70.1199 61.8ZM33.1999 35.8C33.1999 31.64 29.5599 28 25.3999 28C21.2399 28 17.5999 31.64 17.5999 35.8C17.5999 39.96 21.2399 43.6 25.3999 43.6C29.5599 43.6 33.1999 39.96 33.1999 35.8ZM64.3999 35.8C64.3999 34.24 63.3599 33.2 61.7999 33.2H59.1999V30.6C59.1999 29.04 58.1599 28 56.5999 28C55.0399 28 53.9999 29.04 53.9999 30.6V33.2H51.3999C49.8399 33.2 48.7999 34.24 48.7999 35.8C48.7999 37.36 49.8399 38.4 51.3999 38.4H53.9999V41C53.9999 42.56 55.0399 43.6 56.5999 43.6C58.1599 43.6 59.1999 42.56 59.1999 41V38.4H61.7999C63.3599 38.4 64.3999 37.36 64.3999 35.8Z" fill="url(#paint0_linear_43_28)"/>
<defs>
<linearGradient id="paint0_linear_43_28" x1="40.9837" y1="7.20001" x2="40.9837" y2="62.5167" gradientUnits="userSpaceOnUse">
<stop offset="0.359375" stop-color="#FF0000"/>
<stop offset="1" stop-color="#001AFF"/>
</linearGradient>
</defs>
</svg>
