<svg width="97" height="97" viewBox="0 0 97 97" fill="none" xmlns="http://www.w3.org/2000/svg">
<path d="M48.5 0C75.2865 0 97 21.7135 97 48.5C97 75.2865 75.2865 97 48.5 97C21.7135 97 0 75.2865 0 48.5C0 21.7135 21.7135 0 48.5 0ZM70.0437 29.1C68.1959 29.1339 65.3586 30.1039 51.7155 35.7057C42.1392 39.7036 32.5893 43.7647 23.0666 47.8889C20.7386 48.8055 19.5261 49.6979 19.4145 50.5709C19.2011 52.2491 21.6455 52.768 24.7204 53.7574C27.2279 54.5625 30.6035 55.5034 32.3592 55.5422C33.95 55.5761 35.7251 54.9263 37.6845 53.6022C51.0705 44.6782 57.972 40.1725 58.4086 40.0755C58.7141 40.0076 59.1361 39.9203 59.4271 40.1726C59.7132 40.4247 59.6841 40.9001 59.6501 41.031C59.4076 42.0543 46.8413 53.3403 46.1186 54.0823L45.7695 54.4315C43.102 57.0651 40.4102 58.7868 45.0565 61.8084C49.2566 64.5389 51.701 66.2801 56.0175 69.0834C58.782 70.8682 60.9499 72.9876 63.8017 72.7306C65.1161 72.6094 66.4692 71.392 67.1628 67.7545C68.7875 59.17 71.9885 40.5557 72.7257 32.883C72.7703 32.2466 72.7427 31.6071 72.6433 30.9769C72.5835 30.4682 72.3341 30.0006 71.9449 29.6674C71.358 29.1922 70.4463 29.0951 70.0437 29.1Z" fill="white"/>
</svg>
