<svg width="78" height="78" viewBox="0 0 78 78" fill="none" xmlns="http://www.w3.org/2000/svg">
<g clip-path="url(#clip0_152_1389)">
<path d="M70.6875 0H7.3125C3.29063 0 0 3.29063 0 7.3125V70.6875C0 74.7094 3.29063 78 7.3125 78H70.6875C74.7094 78 78 74.7094 78 70.6875V7.3125C78 3.29063 74.7094 0 70.6875 0ZM63.1751 54.6L56.043 54.7073C56.043 54.7073 54.5025 55.0144 52.494 53.625C49.8274 51.7969 47.3119 47.0291 45.3473 47.6531C43.368 48.2771 43.4265 52.5574 43.4265 52.5574C43.4265 52.5574 43.4411 53.4739 42.9829 53.9565C42.4954 54.4879 41.5204 54.5951 41.5204 54.5951H38.337C38.337 54.5951 31.2975 55.0241 25.0965 48.5599C18.33 41.5204 12.363 27.5535 12.363 27.5535C12.363 27.5535 12.012 26.637 12.3923 26.1982C12.8164 25.6961 13.962 25.6669 13.962 25.6669L21.5962 25.623C21.5962 25.623 22.3129 25.7449 22.8296 26.1251C23.2586 26.4323 23.4829 27.0221 23.4829 27.0221C23.4829 27.0221 24.7163 30.147 26.3494 32.9648C29.5328 38.4637 31.0245 39.6679 32.1068 39.0877C33.6765 38.2346 33.2036 31.3024 33.2036 31.3024C33.2036 31.3024 33.2329 28.7869 32.4139 27.6754C31.7753 26.8076 30.5711 26.5492 30.0544 26.4859C29.6254 26.4225 30.3274 25.4329 31.2439 24.9795C32.6138 24.3068 35.0366 24.2629 37.9031 24.2921C40.1261 24.3067 40.7842 24.4579 41.652 24.6578C44.2894 25.2964 43.3875 27.7485 43.3875 33.6326C43.3875 35.5241 43.0511 38.1713 44.4064 39.039C44.9865 39.4193 46.4149 39.0975 49.998 33.0233C51.6896 30.1421 52.9669 26.7637 52.9669 26.7637C52.9669 26.7637 53.2399 26.1544 53.6689 25.896C54.1125 25.6376 54.7073 25.7156 54.7073 25.7156L62.7364 25.6717C62.7364 25.6717 65.1446 25.3841 65.5395 26.481C65.949 27.6217 64.6425 30.2884 61.3665 34.6613C55.9894 41.8372 55.38 41.1645 59.8601 45.3082C64.1257 49.2716 65.0081 51.2021 65.1641 51.4459C66.8996 54.3709 63.1849 54.6 63.1849 54.6H63.1751Z" fill="white"/>
</g>
<defs>
<clipPath id="clip0_152_1389">
<rect width="78" height="78" fill="white"/>
</clipPath>
</defs>
</svg>
